<svg width="128" height="128" viewBox="0 0 128 128" fill="none" xmlns="http://www.w3.org/2000/svg">
<circle cx="64" cy="64" r="64" fill="white"/>
<path d="M89.9435 79.0114C88.6618 77.805 86.9276 77.1264 85.1935 77.1264C83.2332 77.1264 81.3482 77.9558 80.0665 79.3883C74.9394 84.9678 70.3402 87.0789 63.7806 87.0789C56.9195 87.0789 52.1694 84.8924 46.967 79.3129C45.6099 77.8804 43.8003 77.051 41.84 77.051C40.0305 77.051 38.3717 77.7296 37.0146 78.936C34.1495 81.5749 33.9987 86.0233 36.6376 88.8884C44.4789 97.3329 52.848 101.103 63.7052 101.103C74.3363 101.103 82.5546 97.3329 90.3205 88.8884C92.9594 86.0987 92.8086 81.6503 89.9435 79.0114Z" fill="black"/>
<path d="M89.7922 64.9875C94.1645 64.9875 97.7089 61.4431 97.7089 57.0708C97.7089 52.6985 94.1645 49.1541 89.7922 49.1541C85.4199 49.1541 81.8755 52.6985 81.8755 57.0708C81.8755 61.4431 85.4199 64.9875 89.7922 64.9875Z" fill="black"/>
<path d="M34.1492 63.7811C30.3793 61.5192 29.1729 56.6184 31.4349 52.8485L44.7048 30.7571C46.9667 26.9872 51.8675 25.7808 55.6374 28.0428C59.4073 30.3047 60.6136 35.2055 58.3517 38.9754L45.0818 61.0668C42.8199 64.7613 37.919 66.043 34.1492 63.7811Z" fill="black"/>
<path d="M59.8596 63.7811C56.0897 61.5192 54.8834 56.6184 57.1453 52.8485L70.4152 30.7571C72.6772 26.9872 77.578 25.7808 81.3479 28.0428C85.1177 30.3047 86.3241 35.2055 84.0622 38.9754L70.7922 61.0668C68.5303 64.7613 63.6295 66.043 59.8596 63.7811Z" fill="black"/>
<g filter="url(#filter0_d_41195_120470)">
<circle cx="92" cy="92" r="36" fill="white"/>
</g>
<path d="M69.3081 77.5V109.3H90.5801V102.98H76.4121V77.5H69.3081Z" fill="black"/>
<path fill-rule="evenodd" clip-rule="evenodd" d="M95.2847 77.5V109.3H102.389V98.156H110.345C113.957 98.156 116.726 96.9825 118.591 95.0724C120.453 93.1661 121.373 90.5698 121.373 87.8C121.373 85.0507 120.406 82.4694 118.526 80.5738C116.642 78.6751 113.876 77.5 110.345 77.5H95.2847ZM114.101 87.8C114.101 89.0086 113.717 90.0036 113.006 90.6969C112.294 91.3905 111.199 91.836 109.673 91.836H102.389V83.82H109.673C111.169 83.82 112.267 84.2644 112.988 84.9551C113.708 85.6448 114.101 86.6268 114.101 87.8Z" fill="black"/>
<defs>
<filter id="filter0_d_41195_120470" x="44" y="44" width="84" height="84" filterUnits="userSpaceOnUse" color-interpolation-filters="sRGB">
<feFlood flood-opacity="0" result="BackgroundImageFix"/>
<feColorMatrix in="SourceAlpha" type="matrix" values="0 0 0 0 0 0 0 0 0 0 0 0 0 0 0 0 0 0 127 0" result="hardAlpha"/>
<feOffset dx="-6" dy="-6"/>
<feGaussianBlur stdDeviation="3"/>
<feComposite in2="hardAlpha" operator="out"/>
<feColorMatrix type="matrix" values="0 0 0 0 0 0 0 0 0 0 0 0 0 0 0 0 0 0 0.3 0"/>
<feBlend mode="normal" in2="BackgroundImageFix" result="effect1_dropShadow_41195_120470"/>
<feBlend mode="normal" in="SourceGraphic" in2="effect1_dropShadow_41195_120470" result="shape"/>
</filter>
</defs>
</svg>
