<svg width="128" height="128" viewBox="0 0 128 128" fill="none" xmlns="http://www.w3.org/2000/svg">
<circle cx="64" cy="64" r="64" fill="#FA8337"/>
<path d="M89.9435 79.0114C88.6618 77.805 86.9276 77.1264 85.1935 77.1264C83.2332 77.1264 81.3482 77.9558 80.0665 79.3883C74.9394 84.9678 70.3402 87.0789 63.7806 87.0789C56.9195 87.0789 52.1694 84.8924 46.967 79.3129C45.6099 77.8804 43.8003 77.051 41.84 77.051C40.0305 77.051 38.3717 77.7296 37.0146 78.936C34.1495 81.5749 33.9987 86.0233 36.6376 88.8884C44.4789 97.3329 52.848 101.103 63.7052 101.103C74.3363 101.103 82.5546 97.3329 90.3205 88.8884C92.9594 86.0987 92.8086 81.6503 89.9435 79.0114Z" fill="white"/>
<path d="M89.7922 64.9875C94.1645 64.9875 97.7089 61.4431 97.7089 57.0708C97.7089 52.6985 94.1645 49.1541 89.7922 49.1541C85.4199 49.1541 81.8755 52.6985 81.8755 57.0708C81.8755 61.4431 85.4199 64.9875 89.7922 64.9875Z" fill="white"/>
<path d="M34.1492 63.7811C30.3793 61.5192 29.1729 56.6184 31.4349 52.8485L44.7048 30.7571C46.9667 26.9872 51.8675 25.7808 55.6374 28.0428C59.4073 30.3047 60.6136 35.2055 58.3517 38.9754L45.0818 61.0668C42.8199 64.7613 37.919 66.043 34.1492 63.7811Z" fill="white"/>
<path d="M59.8596 63.7811C56.0897 61.5192 54.8834 56.6184 57.1453 52.8485L70.4152 30.7571C72.6772 26.9872 77.578 25.7808 81.3479 28.0428C85.1177 30.3047 86.3241 35.2055 84.0622 38.9754L70.7922 61.0668C68.5303 64.7613 63.6295 66.043 59.8596 63.7811Z" fill="white"/>
<g filter="url(#filter0_d_41195_120389)">
<circle cx="92" cy="92" r="36" fill="white"/>
</g>
<path fill-rule="evenodd" clip-rule="evenodd" d="M63 79.672L74.4399 107.72H81.44L92.8798 79.672H85.4661L77.9119 99.0664L70.3578 79.672H63Z" fill="black"/>
<path fill-rule="evenodd" clip-rule="evenodd" d="M119.638 104.333L119.946 104.037L116.673 99.3318L116.25 99.7544C114.458 101.547 111.458 102.576 108.932 102.576C104.338 102.576 101.51 99.7197 100.884 96.128H121.696V94.228C121.696 89.8717 120.363 86.0652 117.951 83.3406C115.535 80.6103 112.064 79 107.868 79C99.5591 79 93.648 85.5773 93.648 93.668C93.648 98.0739 95.2055 101.762 97.8364 104.35C100.466 106.935 104.138 108.392 108.316 108.392C112.724 108.392 116.835 107.019 119.638 104.333ZM107.868 84.816C110.39 84.816 112.127 85.7525 113.254 87.0332C114.262 88.1798 114.801 89.6267 114.947 90.984H100.815C101.03 89.5829 101.625 88.1329 102.647 86.9952C103.791 85.7217 105.49 84.816 107.868 84.816Z" fill="black"/>
<defs>
<filter id="filter0_d_41195_120389" x="44" y="44" width="84" height="84" filterUnits="userSpaceOnUse" color-interpolation-filters="sRGB">
<feFlood flood-opacity="0" result="BackgroundImageFix"/>
<feColorMatrix in="SourceAlpha" type="matrix" values="0 0 0 0 0 0 0 0 0 0 0 0 0 0 0 0 0 0 127 0" result="hardAlpha"/>
<feOffset dx="-6" dy="-6"/>
<feGaussianBlur stdDeviation="3"/>
<feComposite in2="hardAlpha" operator="out"/>
<feColorMatrix type="matrix" values="0 0 0 0 0 0 0 0 0 0 0 0 0 0 0 0 0 0 0.3 0"/>
<feBlend mode="normal" in2="BackgroundImageFix" result="effect1_dropShadow_41195_120389"/>
<feBlend mode="normal" in="SourceGraphic" in2="effect1_dropShadow_41195_120389" result="shape"/>
</filter>
</defs>
</svg>
